<?xml version="1.0" encoding="UTF-8"?>
<svg id="COLOR" xmlns="http://www.w3.org/2000/svg" viewBox="0 0 1152 896">
  <defs>
    <style>
      .cls-1 {
        fill: #f5cb23;
      }

      .cls-2 {
        fill: #fff;
      }
    </style>
  </defs>
  <g id="bUNKER">
    <path class="cls-1" d="M261.01,781.61c-1.63-1.44-2.44-3.72-2.44-6.86v-140.03c0-3.13.81-5.4,2.44-6.79,1.63-1.4,4.22-2.09,7.76-2.09h50.59c20.7,0,35.93,3.54,45.71,10.6,9.77,7.07,14.66,16.82,14.66,29.26,0,7.45-2.64,14.3-7.91,20.57-5.27,6.26-11.88,10.83-19.84,13.71l.29.89c6.71,1.19,12.67,3.6,17.89,7.24,5.22,3.64,9.29,8.08,12.22,13.33,2.92,5.25,4.38,10.75,4.38,16.5,0,14.81-5.32,26.15-15.95,34.02-10.64,7.87-26.59,11.81-47.86,11.81h-54.19c-3.55,0-6.13-.72-7.76-2.16ZM315.48,688.69c7.47,0,13.3-1.59,17.46-4.76s6.25-7.21,6.25-12.12c0-11.17-7.76-16.76-23.29-16.76h-17.97v33.64h17.54ZM322.96,754.19c7.38,0,13.13-1.59,17.25-4.76,4.12-3.17,6.18-7.68,6.18-13.52s-2.37-10.11-7.11-13.08c-4.74-2.96-11.57-4.44-20.48-4.44h-20.84v35.8h25.01Z"/>
    <path class="cls-1" d="M418.52,766.12c-8.9-3.93-15.71-9.62-20.41-17.06-4.7-7.44-7.05-16.4-7.05-26.89v-89.62c0-2.24,1-3.91,3.01-5.03,2-1.12,5.13-1.68,9.37-1.68h6.94c4.24,0,7.34.56,9.31,1.68,1.97,1.12,2.95,2.8,2.95,5.03v87.54c0,4.78,1.17,9.06,3.53,12.84,2.35,3.78,5.65,6.73,9.89,8.85,4.24,2.12,9.1,3.18,14.57,3.18s10.35-1.06,14.63-3.18c4.28-2.12,7.61-5.07,10-8.85,2.39-3.78,3.58-8.06,3.58-12.84v-87.54c0-2.24.98-3.91,2.95-5.03,1.97-1.12,5.07-1.68,9.31-1.68h6.82c4.24,0,7.34.56,9.31,1.68,1.97,1.12,2.95,2.8,2.95,5.03v89.62c0,10.49-2.35,19.45-7.05,26.89-4.7,7.44-11.51,13.13-20.41,17.06-8.9,3.93-19.6,5.9-32.09,5.9s-23.19-1.97-32.09-5.9Z"/>
    <path class="cls-1" d="M517.58,761.74v-129.31c0-2.2.98-3.84,2.95-4.94,1.97-1.1,5.04-1.65,9.2-1.65h8.64c3.26,0,5.95.38,8.07,1.14,2.12.76,3.86,2.24,5.23,4.43l47.72,73.52,5.45,8.18v-80.68c0-2.2.98-3.84,2.95-4.94,1.97-1.1,5.04-1.65,9.2-1.65h5.8c4.17,0,7.22.55,9.15,1.65,1.93,1.1,2.9,2.75,2.9,4.94v129.31c0,4.24-4.02,6.36-12.04,6.36h-7.73c-3.33,0-6.02-.36-8.07-1.08-2.05-.72-3.75-2.14-5.11-4.26l-50-76.47-4.32-6.36v81.81c0,4.24-4.02,6.36-12.04,6.36h-5.8c-8.11,0-12.16-2.12-12.16-6.36Z"/>
    <path class="cls-1" d="M655.66,763.05v-131.92c0-2.24,1-3.92,3.01-5.04,2.01-1.12,5.14-1.68,9.39-1.68h7.19c4.25,0,7.38.56,9.39,1.68,2.01,1.12,3.01,2.8,3.01,5.04v55.18l.81.23,35.82-58.19c1.54-2.63,5.64-3.94,12.29-3.94h9.74c3.79,0,6.67.29,8.64.87s2.96,1.33,2.96,2.26c0,1.24-.58,2.71-1.74,4.4l-39.76,60.97,45.21,69.2c1.08,1.7,1.62,3.13,1.62,4.29,0,2.09-3.83,3.13-11.48,3.13h-12.06c-3.32,0-6.03-.27-8.11-.81s-3.56-1.58-4.4-3.13l-38.72-62.6-.81.12v59.93c0,4.33-4.14,6.49-12.4,6.49h-7.19c-8.27,0-12.4-2.16-12.4-6.49Z"/>
    <path class="cls-1" d="M774.38,763.21c-1.26-1.26-1.89-3.26-1.89-6v-122.58c0-2.74.63-4.72,1.89-5.95,1.26-1.22,3.26-1.83,6-1.83h72.35c2.07,0,3.57.78,4.5,2.33.93,1.56,1.39,4.08,1.39,7.56v6c0,3.48-.46,6-1.39,7.56-.93,1.56-2.43,2.33-4.5,2.33h-49.79v28.67h44.45c2.07,0,3.57.78,4.5,2.33.93,1.56,1.39,4.08,1.39,7.56v6.11c0,3.48-.46,6-1.39,7.56-.93,1.56-2.43,2.33-4.5,2.33h-44.45v32.01h49.9c2.07,0,3.57.78,4.5,2.33.93,1.56,1.39,4.04,1.39,7.45v6.22c0,3.48-.46,6-1.39,7.56-.93,1.56-2.43,2.33-4.5,2.33h-72.46c-2.74,0-4.74-.63-6-1.89Z"/>
    <path class="cls-1" d="M873.91,765.88v-132.24c0-2.91.67-5.01,2.01-6.31,1.34-1.3,3.46-1.95,6.37-1.95h40.93c34.76,0,52.14,13.09,52.14,39.28,0,7.94-2.22,14.79-6.67,20.53-4.44,5.74-10.4,10.03-17.87,12.86v.83c2.6,1.1,5.33,3.46,8.2,7.08,2.87,3.62,5.17,7.71,6.9,12.27l18.52,46.13c.63,1.89.94,3.23.94,4.01,0,2.75-4.17,4.13-12.5,4.13h-8.61c-7,0-11.05-1.45-12.15-4.36l-16.63-40.93c-1.57-3.14-3.09-5.58-4.54-7.31-1.46-1.73-3.48-3.05-6.08-3.95-2.6-.9-6.1-1.36-10.5-1.36h-8.14v51.32c0,4.41-4.21,6.61-12.62,6.61h-7.08c-8.42,0-12.62-2.2-12.62-6.61ZM926.05,686.72c2.83,0,5.5-.81,8.02-2.42,2.52-1.61,4.52-3.79,6.02-6.55,1.49-2.75,2.24-5.78,2.24-9.08,0-4.88-1.59-8.75-4.78-11.62-3.19-2.87-7.49-4.31-12.92-4.31h-18.4v33.97h19.82Z"/>
  </g>
  <g id="DER">
    <path class="cls-1" d="M263.08,599.66c-.55-.55-.83-1.43-.83-2.64v-53.86c0-1.2.28-2.08.83-2.61.55-.54,1.43-.81,2.64-.81h19.43c5.96,0,11.01,1.16,15.16,3.49,4.15,2.33,7.29,5.75,9.42,10.28,2.13,4.53,3.2,10.04,3.2,16.55s-1.07,12.08-3.2,16.6c-2.13,4.53-5.27,7.96-9.42,10.3s-9.2,3.52-15.16,3.52h-19.43c-1.2,0-2.08-.28-2.64-.83ZM285.15,589.12c4.62,0,8.12-1.62,10.5-4.86,2.38-3.24,3.56-7.97,3.56-14.18s-1.19-10.9-3.56-14.14c-2.38-3.24-5.88-4.86-10.5-4.86h-9.42v38.04h9.42Z"/>
    <path class="cls-1" d="M323.43,599.66c-.55-.55-.83-1.43-.83-2.64v-53.86c0-1.2.28-2.08.83-2.61.55-.54,1.43-.81,2.64-.81h31.79c.91,0,1.57.34,1.98,1.03.41.68.61,1.79.61,3.32v2.64c0,1.53-.2,2.64-.61,3.32-.41.68-1.07,1.03-1.98,1.03h-21.88v12.6h19.53c.91,0,1.57.34,1.98,1.03.41.68.61,1.79.61,3.32v2.69c0,1.53-.2,2.64-.61,3.32-.41.68-1.07,1.03-1.98,1.03h-19.53v14.06h21.92c.91,0,1.57.34,1.98,1.03.41.68.61,1.77.61,3.27v2.73c0,1.53-.2,2.64-.61,3.32-.41.68-1.07,1.03-1.98,1.03h-31.84c-1.2,0-2.08-.28-2.64-.83Z"/>
    <path class="cls-1" d="M370.01,597.91v-54.74c0-1.2.28-2.08.83-2.61.55-.54,1.43-.81,2.64-.81h16.94c14.39,0,21.58,5.42,21.58,16.26,0,3.29-.92,6.12-2.76,8.5-1.84,2.38-4.31,4.15-7.4,5.32v.34c1.07.46,2.21,1.43,3.39,2.93,1.19,1.5,2.14,3.19,2.86,5.08l7.67,19.09c.26.78.39,1.33.39,1.66,0,1.14-1.73,1.71-5.18,1.71h-3.56c-2.9,0-4.57-.6-5.03-1.81l-6.88-16.94c-.65-1.3-1.28-2.31-1.88-3.03-.6-.72-1.44-1.26-2.51-1.64-1.07-.37-2.52-.56-4.35-.56h-3.37v21.24c0,1.82-1.74,2.73-5.22,2.73h-2.93c-3.48,0-5.22-.91-5.22-2.73ZM391.59,565.14c1.17,0,2.28-.33,3.32-1,1.04-.67,1.87-1.57,2.49-2.71.62-1.14.93-2.39.93-3.76,0-2.02-.66-3.62-1.98-4.81-1.32-1.19-3.1-1.78-5.35-1.78h-7.62v14.06h8.2Z"/>
  </g>
  <g id="hAUSE">
    <path id="TEIL" class="cls-2" d="M545.81,534.51l-31.79-4.54c-1.46-1.43,10.8-29.8,15.34-29.48l16.44,34.02Z"/>
    <path id="TEIL-2" data-name="TEIL" class="cls-2" d="M580.22,542.89l-1.66-1.74-14.84-70.29c-4.67-21.4,12.14-32.93,23.04-48.19,2.97-4.16,16.73-22.89,10.77-27.04-3.9-2.71-46.23,20.81-53.61,23.93-21.06,8.9-43.45,10.99-65.51,16.23-12.37,2.94-36.85,5.15-25.77,23,9.56,3.75,26.41,2.8,35.16,6.28,6.23,2.48,5.71,8.18,5.26,13.75-1.31,16.2-6.57,32.56-9.61,48.46l-86.54-13.9c.33-9.71-9.19-35.55-5.64-43.18,5.13-11.06,35.71-5.21,40.39-14.17,7.92-15.15-15.99-17.53-26.07-19.98-21.17-5.15-42.34-7.09-62.64-15.69-7.43-3.15-50.28-27.41-54.01-24.76-2.2,4.53-.09,10.01,1.99,14.35,5.43,11.33,28.64,34.34,30.62,43.16.84,3.74.53,12.64.22,16.77s-4.7,27.93-6.22,30.11c-2.01,2.86-55.2-8.27-72.64-10.17-2.48-.27-4.35-2.39-4.31-4.89l2.76-201.06c.03-1.99,1.26-3.76,3.12-4.47l386.77-147.97c3.17-1.21,6.58,1.12,6.59,4.51l-1.8,414.28M358.97,348.16c-24.15,2.92-36.57,33.61-22.92,52.97,10.78,15.3,34.51,22.6,49.19,8.46,23.91-23.04,9.91-65.81-26.26-61.43ZM515.63,348.16c-50.4,6.65-27.82,90.99,21.08,64.19,33.55-18.38,17.11-69.23-21.08-64.19Z"/>
    <path id="TEIL-3" data-name="TEIL" class="cls-2" d="M911.39,268.43c-.02-1.79-1.03-3.43-2.63-4.25l-258.09-132.56c-3.22-1.65-7.04.68-7.04,4.3v411.76c0,1.3,1.19,2.27,2.46,2.02l108.78-21.92c.96-.19,1.65-1.04,1.65-2.02v-140.37c0-3.88,3.14-7.02,7.02-7.02l9.28.18,13.63.32c.29,0,.52-.22.54-.51.67-9.74,11.07-11.39,15.64-10.27l51.81,14.99c4.92,1.42,8.31,5.93,8.31,11.05v109.4c0,1.3,1.19,2.27,2.46,2.02l15.93-3.21,27.05-5.08c3.29-.62,5.66-3.5,5.62-6.85l-2.43-221.99Z"/>
    <g id="TEIL-4" data-name="TEIL">
      <path class="cls-2" d="M784.76,382.72h-17.49c-3.04,0-5.5,3.06-5.5,6.84v143.53c0,.75.49,1.35,1.09,1.34l10.59-.2c.59-.01,1.06-.61,1.06-1.34l-.1-77.26-.16-55.74c0-1.02.66-1.86,1.49-1.86h9.02v-14.97c0-.11.01-.22.01-.33Z"/>
      <path class="cls-2" d="M852.07,387.83l-49.83-13.97c-5.46-1.74-10.91,2.66-11.1,8.86h40.77c3.88,0,7.02,3.06,7.02,6.84v1.62c0,3.78-3.14,6.84-7.02,6.84h-40.79v145.19c0,5.95,4.89,10.46,10.22,9.42l49.07-9.58c4.15-.81,7.18-4.78,7.18-9.42v-134.97c0-4.26,0-8.66-5.52-10.85Z"/>
      <path class="cls-2" d="M838.93,391.19v-1.62c0-3.78-3.14-6.84-7.02-6.84h-40.77c0,.11-.02.22-.02.33v14.97h40.79c3.88,0,7.02-3.06,7.02-6.84Z"/>
    </g>
  </g>
</svg>